<svg height="512pt" viewBox="0 -64 512 512" width="512pt" xmlns="http://www.w3.org/2000/svg"><path d="m448 352h-384c-17.699219 0-32-14.300781-32-32v-256c0-17.699219 14.300781-32 32-32h384c17.699219 0 32 14.300781 32 32v256c0 17.699219-14.300781 32-32 32zm0 0" fill="#edf4ff"/><path d="m434 177.199219c-39.5-49.097657-104.398438-81.199219-178-81.199219s-138.5 32.101562-178 81.199219c-6.898438 8.601562-6.898438 21 0 29.601562 39.5 49.097657 104.5 81.199219 178 81.199219s138.5-32.101562 178-81.199219c6.898438-8.601562 6.898438-21 0-29.601562zm0 0" fill="#fff"/><path d="m336 176c0 44.183594-35.816406 80-80 80s-80-35.816406-80-80 35.816406-80 80-80 80 35.816406 80 80zm0 0" fill="#c3ddff"/><path d="m304 176c0 26.507812-21.492188 48-48 48s-48-21.492188-48-48 21.492188-48 48-48 48 21.492188 48 48zm0 0" fill="#6f6571"/><path d="m272 208c-26.5 0-48-21.5-48-48 0-9.199219 2.601562-17.699219 7.101562-24.898438-13.800781 8.398438-23.101562 23.597657-23.101562 40.898438 0 26.5 21.5 48 48 48 17.398438 0 32.5-9.199219 40.898438-23.101562-7.199219 4.5-15.699219 7.101562-24.898438 7.101562zm0 0" fill="#5d5360"/><path d="m434 177.199219c-15-18.597657-33.601562-34.800781-55-47.699219l17.300781-10.199219c3.800781-2.199219 5.097657-7.101562 2.800781-11-2.300781-3.902343-7.101562-5.101562-11-2.800781l-25.601562 15.101562c-12.898438-6.402343-26.601562-11.800781-41-15.800781l13.199219-20.5c2.402343-3.699219 1.300781-8.699219-2.398438-11.101562-3.699219-2.398438-8.699219-1.300781-11.101562 2.402343l-16.097657 25.398438c-13.300781-2.699219-27-4.300781-41.101562-4.699219v-32.300781c0-4.398438-3.601562-8-8-8s-8 3.601562-8 8v32.199219c-14.101562.402343-27.800781 2.101562-41.101562 4.699219l-16.199219-25.296876c-2.398438-3.703124-7.300781-4.800781-11.097657-2.402343-3.703124 2.402343-4.800781 7.300781-2.402343 11.101562l13.199219 20.5c-14.398438 4-28.097657 9.300781-41 15.800781l-25.597657-15.101562c-3.800781-2.199219-8.699219-1-11 2.800781-2.199219 3.800781-1 8.699219 2.800781 11l17.296876 10.199219c-21.398438 12.898438-40 29.101562-55 47.699219-6.097657 7.5-6.796876 18.101562-2.199219 26.402343.601562-1.203124 1.402343-2.5 2.199219-3.601562 39.5-53.199219 104.5-88 178-88s138.5 34.800781 178 88c.800781 1.101562 1.601562 2.300781 2.203124 3.5 4.796876-8.300781 4-18.800781-2.101562-26.300781zm0 0" fill="#dbeaff"/><g fill="#9b959d"><path d="m8 80c-4.398438 0-8-3.601562-8-8v-64c0-4.398438 3.601562-8 8-8h64c4.398438 0 8 3.601562 8 8s-3.601562 8-8 8h-56v56c0 4.398438-3.601562 8-8 8zm0 0"/><path d="m504 80c-4.398438 0-8-3.601562-8-8v-56h-56c-4.398438 0-8-3.601562-8-8s3.601562-8 8-8h64c4.398438 0 8 3.601562 8 8v64c0 4.398438-3.601562 8-8 8zm0 0"/><path d="m504 384h-64c-4.398438 0-8-3.601562-8-8s3.601562-8 8-8h56v-56c0-4.398438 3.601562-8 8-8s8 3.601562 8 8v64c0 4.398438-3.601562 8-8 8zm0 0"/><path d="m72 384h-64c-4.398438 0-8-3.601562-8-8v-64c0-4.398438 3.601562-8 8-8s8 3.601562 8 8v56h56c4.398438 0 8 3.601562 8 8s-3.601562 8-8 8zm0 0"/></g><path d="m301.199219 168c-3.300781 0-6.398438-2-7.5-5.300781-4-11.398438-12.898438-20.300781-24.300781-24.300781-4.199219-1.5-6.296876-6-4.898438-10.199219 1.5-4.199219 6-6.398438 10.199219-4.898438 16 5.699219 28.402343 18.097657 34.101562 34.097657 1.5 4.203124-.699219 8.703124-4.902343 10.203124-.898438.296876-1.796876.398438-2.699219.398438zm0 0" fill="#ff8086"/><path d="m210.800781 168c-.902343 0-1.800781-.101562-2.699219-.5-4.203124-1.5-6.300781-6-4.902343-10.199219 5.699219-16 18.101562-28.402343 34.101562-34.101562 4.199219-1.5 8.800781.699219 10.199219 4.902343 1.5 4.199219-.699219 8.699219-4.898438 10.199219-11.402343 4-20.300781 12.898438-24.300781 24.300781-1.101562 3.398438-4.199219 5.398438-7.5 5.398438zm0 0" fill="#ff8086"/><path d="m272 229.199219c-3.300781 0-6.398438-2-7.5-5.300781-1.5-4.199219.699219-8.699219 4.898438-10.199219 11.402343-4 20.300781-12.898438 24.300781-24.300781 1.5-4.199219 6-6.398438 10.199219-4.898438 4.203124 1.5 6.300781 6 4.902343 10.199219-5.699219 16-18.101562 28.402343-34.101562 34.101562-.898438.300781-1.800781.398438-2.699219.398438zm0 0" fill="#ff8086"/><path d="m242.699219 213.699219c-11.398438-4-20.300781-12.898438-24.300781-24.300781-1.5-4.199219-6-6.296876-10.199219-4.898438-4.199219 1.5-6.300781 6-4.898438 10.199219 1.199219 3.5 2.800781 6.800781 4.699219 10 1.800781 3 1.101562 7-1.398438 9.5l-85.203124 85.199219c-3 3-7.097657 4.703124-11.296876 4.703124h-54.101562c-4.398438 0-8 3.597657-8 8 0 4.398438 3.601562 8 8 8h54.101562c8.398438 0 16.699219-3.402343 22.597657-9.402343l85.199219-85.199219c2.5-2.5 6.402343-3.199219 9.5-1.398438 3.101562 1.898438 6.402343 3.5 10 4.699219.902343.300781 1.800781.5 2.703124.5 3.296876 0 6.398438-2 7.5-5.300781 1.398438-4.300781-.800781-8.898438-4.902343-10.300781zm0 0" fill="#ff8086"/><path d="m96 288h-40c-4.398438 0-8-3.601562-8-8s3.601562-8 8-8h40c4.398438 0 8 3.601562 8 8s-3.601562 8-8 8zm0 0" fill="#a4ccff"/><path d="m456 288h-32c-4.398438 0-8-3.601562-8-8s3.601562-8 8-8h32c4.398438 0 8 3.601562 8 8s-3.601562 8-8 8zm0 0" fill="#a4ccff"/><path d="m456 320h-64c-4.398438 0-8-3.601562-8-8s3.601562-8 8-8h64c4.398438 0 8 3.601562 8 8s-3.601562 8-8 8zm0 0" fill="#a4ccff"/><path d="m80 64c0 8.835938-7.164062 16-16 16s-16-7.164062-16-16 7.164062-16 16-16 16 7.164062 16 16zm0 0" fill="#ff8086"/><path d="m144 72h-32c-4.398438 0-8-3.601562-8-8s3.601562-8 8-8h32c4.398438 0 8 3.601562 8 8s-3.601562 8-8 8zm0 0" fill="#a4ccff"/><path d="m96 320h-40c-4.398438 0-8-3.601562-8-8s3.601562-8 8-8h40c4.398438 0 8 3.601562 8 8s-3.601562 8-8 8zm0 0" fill="#e5646e"/></svg>