<svg height="480pt" viewBox="0 0 480 480" width="480pt" xmlns="http://www.w3.org/2000/svg"><path d="m155.574219 73.34375 72.003906-48 8.875 13.3125-72.003906 48.003906zm0 0" fill="#bab8b9"/><path d="m28.171875 39.023438 7.664063-14.046876 88 48.003907-7.664063 14.046875zm0 0" fill="#bab8b9"/><path d="m400 160v-32c0-17.671875-14.328125-32-32-32h-144c-17.671875 0-32 14.328125-32 32v32h32v-32h144v32zm0 0" fill="#575c61"/><path d="m384 160v-32c0-8.839844-7.160156-16-16-16h-144c-8.839844 0-16 7.160156-16 16v32h16v-32h144v32zm0 0" fill="#5b6673"/><path d="m336 160h96v32h-96zm0 0" fill="#bc8f6f"/><path d="m336 160h56v32h-56zm0 0" fill="#cb9e78"/><path d="m352 192v53.574219c-37.265625 13.195312-64 48.640625-64 90.425781 0 53.015625 42.984375 96 96 96s96-42.984375 96-96c0-41.785156-26.734375-77.230469-64-90.425781v-53.574219" fill="#bab8b9"/><path d="m288 336c0 48.945312 36.65625 89.257812 84 95.167969 47.34375-5.910157 84-46.222657 84-95.167969 0-41.785156-26.734375-77.230469-64-90.425781v-53.574219h-40v53.574219c-37.265625 13.195312-64 48.640625-64 90.425781zm0 0" fill="#d9d7d8"/><path d="m384 432c53.015625 0 96-42.984375 96-96l-14.625-14.625c-6.007812-6.007812-14.144531-9.375-22.632812-9.375h-5.484376c-8.488281 0-16.625 3.367188-22.625 9.375l-5.257812 5.257812c-6.007812 6-14.144531 9.367188-22.632812 9.367188h-5.484376c-8.488281 0-16.625-3.367188-22.625-9.375l-5.257812-5.257812c-6.007812-6-14.144531-9.367188-22.632812-9.367188h-5.484376c-8.488281 0-16.625 3.367188-22.625 9.375l-14.632812 14.625c0 53.015625 42.984375 96 96 96zm0 0" fill="#599072"/><path d="m334.625 326.625-5.257812-5.257812c-3.75-3.75-8.382813-6.328126-13.375-7.847657-4.984376 1.511719-9.625 4.097657-13.375 7.847657l-14.617188 14.632812c0 48.945312 36.65625 89.257812 84 95.167969 47.34375-5.910157 84-46.222657 84-95.167969l-14.625-14.625c-3.75-3.75-8.382812-6.328125-13.375-7.847656-4.984375 1.511718-9.625 4.097656-13.375 7.847656l-5.257812 5.257812c-6 6-14.136719 9.367188-22.625 9.367188h-5.484376c-3.1875 0-6.265624-.617188-9.257812-1.527344-2.992188.910156-6.070312 1.527344-9.257812 1.527344h-5.484376c-8.488281 0-16.625-3.367188-22.632812-9.375zm0 0" fill="#70b48f"/><path d="m360 368c0 8.835938-7.164062 16-16 16s-16-7.164062-16-16 7.164062-16 16-16 16 7.164062 16 16zm0 0" fill="#599072"/><path d="m424 384c0 8.835938-7.164062 16-16 16s-16-7.164062-16-16 7.164062-16 16-16 16 7.164062 16 16zm0 0" fill="#599072"/><path d="m160 160h96v32h-96zm0 0" fill="#bc8f6f"/><path d="m160 160h64v32h-64zm0 0" fill="#cb9e78"/><path d="m240 192v208c0 17.671875-14.328125 32-32 32s-32-14.328125-32-32v-208" fill="#bab8b9"/><path d="m200 430.871094c13.777344-3.566406 24-15.976563 24-30.871094v-208h-48v208c0 14.894531 10.222656 27.296875 24 30.871094zm0 0" fill="#d9d7d8"/><path d="m240 288v112c0 17.671875-14.328125 32-32 32s-32-14.328125-32-32v-112" fill="#ca5057"/><path d="m200 430.871094c13.777344-3.566406 24-15.976563 24-30.871094v-112h-48v112c0 14.894531 10.222656 27.296875 24 30.871094zm0 0" fill="#dc6068"/><path d="m32 128h48v288h-48zm0 0" fill="#bc8f6f"/><path d="m32 128h24v288h-24zm0 0" fill="#cb9e78"/><path d="m256 256h-240c-8.839844 0-16-7.160156-16-16s7.160156-16 16-16h240zm0 0" fill="#575c61"/><path d="m2.214844 248c2.777344 4.761719 7.882812 8 13.785156 8h240v-16h-240c-5.902344 0-11.007812 3.238281-13.785156 8zm0 0" fill="#5b6673"/><path d="m16 416h80v32h-80zm0 0" fill="#5b6673"/><path d="m0 448h480v32h-480zm0 0" fill="#575c61"/><path d="m40 24c0 8.835938-7.164062 16-16 16s-16-7.164062-16-16 7.164062-16 16-16 16 7.164062 16 16zm0 0" fill="#70b48f"/><path d="m264 24c0 8.835938-7.164062 16-16 16s-16-7.164062-16-16 7.164062-16 16-16 16 7.164062 16 16zm0 0" fill="#f8cf6a"/><path d="m168 96c0 13.253906-10.746094 24-24 24s-24-10.746094-24-24 10.746094-24 24-24 24 10.746094 24 24zm0 0" fill="#699ce6"/><path d="m432 336h16v16h-16zm0 0" fill="#599072"/><path d="m144 128c-17.648438 0-32-14.351562-32-32s14.351562-32 32-32 32 14.351562 32 32-14.351562 32-32 32zm0-48c-8.824219 0-16 7.175781-16 16s7.175781 16 16 16 16-7.175781 16-16-7.175781-16-16-16zm0 0" fill="#5789d6"/><path d="m248 48c-13.230469 0-24-10.769531-24-24s10.769531-24 24-24 24 10.769531 24 24-10.769531 24-24 24zm0-32c-4.40625 0-8 3.59375-8 8s3.59375 8 8 8 8-3.59375 8-8-3.59375-8-8-8zm0 0" fill="#eebc5a"/><path d="m24 48c-13.230469 0-24-10.769531-24-24s10.769531-24 24-24 24 10.769531 24 24-10.769531 24-24 24zm0-32c-4.40625 0-8 3.59375-8 8s3.59375 8 8 8 8-3.59375 8-8-3.59375-8-8-8zm0 0" fill="#599072"/></svg>