<svg height="512pt" viewBox="0 0 512 512" width="512pt" xmlns="http://www.w3.org/2000/svg"><path d="m512 256c0 141.386719-114.613281 256-256 256s-256-114.613281-256-256 114.613281-256 256-256 256 114.613281 256 256zm0 0" fill="#3e4959"/><path d="m431.46875 123.820312v318.578126c-45.828125 43.152343-107.558594 69.601562-175.46875 69.601562-46.460938 0-90.039062-12.378906-127.601562-34.03125-17.347657-9.988281-33.410157-21.949219-47.886719-35.589844v-436.140625c0-3.4375 2.796875-6.238281 6.25-6.238281h220.886719c19.652343.199219 38.453124 8.101562 52.371093 22.011719l.03125.027343 49.398438 49.410157c7.0625 7.0625 12.570312 15.359375 16.3125 24.402343 3.648437 8.789063 5.617187 18.277344 5.707031 27.96875zm0 0" fill="#d9d8d7"/><path d="m134.640625 0c-3.449219 0-6.242187 2.800781-6.242187 6.238281v471.730469c-17.347657-9.988281-33.410157-21.949219-47.886719-35.589844v-436.140625c0-3.4375 2.796875-6.238281 6.25-6.238281zm0 0" fill="#cccbca"/><path d="m263.398438 294.113281c0 37.28125-30.222657 67.5-67.5 67.5-37.28125 0-67.5-30.21875-67.5-67.5 0-37.277343 30.21875-67.5 67.5-67.5 37.277343 0 67.5 30.222657 67.5 67.5zm0 0" fill="#3e4959"/><path d="m237.117188 347.566406c15.984374-12.34375 26.277343-31.695312 26.277343-53.453125 0-37.277343-30.21875-67.5-67.5-67.5v67.5zm0 0" fill="#ff6d3b"/><path d="m159.78125 351.148438c10.445312 6.625 22.832031 10.464843 36.117188 10.464843 15.519531 0 29.816406-5.242187 41.21875-14.046875l-41.21875-53.453125zm0 0" fill="#fff"/><path d="m128.398438 294.113281c0 23.996094 12.519531 45.0625 31.382812 57.035157l36.117188-57.035157-67.226563-6.046875c-.179687 1.992188-.273437 4.007813-.273437 6.046875zm0 0" fill="#17eb53"/><path d="m128.667969 288.066406 67.226562 6.046875-37.8125-55.917969c-16.34375 11.070313-27.570312 29.121094-29.414062 49.871094zm0 0" fill="#21d8de"/><path d="m376.082031 241.613281h-82.332031c-4.140625 0-7.5-3.355469-7.5-7.5 0-4.140625 3.359375-7.5 7.5-7.5h82.332031c4.144531 0 7.5 3.359375 7.5 7.5 0 4.144531-3.355469 7.5-7.5 7.5zm0 0" fill="#ff6d3b"/><path d="m376.082031 271.613281h-82.332031c-4.140625 0-7.5-3.355469-7.5-7.5 0-4.140625 3.359375-7.5 7.5-7.5h82.332031c4.144531 0 7.5 3.359375 7.5 7.5 0 4.144531-3.355469 7.5-7.5 7.5zm0 0" fill="#fff"/><path d="m376.082031 301.613281h-82.332031c-4.140625 0-7.5-3.355469-7.5-7.5 0-4.140625 3.359375-7.5 7.5-7.5h82.332031c4.144531 0 7.5 3.359375 7.5 7.5 0 4.144531-3.355469 7.5-7.5 7.5zm0 0" fill="#17eb53"/><path d="m376.082031 331.613281h-82.332031c-4.140625 0-7.5-3.355469-7.5-7.5 0-4.140625 3.359375-7.5 7.5-7.5h82.332031c4.144531 0 7.5 3.359375 7.5 7.5 0 4.144531-3.355469 7.5-7.5 7.5zm0 0" fill="#21d8de"/><path d="m376.082031 361.613281h-82.332031c-4.140625 0-7.5-3.355469-7.5-7.5 0-4.140625 3.359375-7.5 7.5-7.5h82.332031c4.144531 0 7.5 3.359375 7.5 7.5 0 4.144531-3.355469 7.5-7.5 7.5zm0 0" fill="#3e4959"/><path d="m230.664062 79.832031h-107.203124c-4.140626 0-7.5-3.355469-7.5-7.5 0-4.140625 3.359374-7.5 7.5-7.5h107.203124c4.144532 0 7.5 3.359375 7.5 7.5 0 4.144531-3.355468 7.5-7.5 7.5zm0 0" fill="#cccbca"/><path d="m128.527344 193.558594c-1.480469 0-2.972656-.4375-4.28125-1.347656-3.398438-2.367188-4.234375-7.042969-1.867188-10.441407l40.332032-57.914062c1.304687-1.875 3.390624-3.050781 5.667968-3.199219 2.273438-.152344 4.5.75 6.035156 2.441406l22.867188 25.167969 23.90625-9.132813c2.777344-1.0625 5.921875-.378906 8.011719 1.738282l32.679687 33.109375 30.59375-49.769531c1.171875-1.90625 3.136719-3.191407 5.355469-3.5l40.695313-5.679688 39.863281-36.429688c3.058593-2.792968 7.800781-2.582031 10.597656.476563 2.792969 3.058594 2.578125 7.804687-.476563 10.597656l-41.585937 38c-1.117187 1.019531-2.519531 1.683594-4.023437 1.890625l-39.496094 5.511719-33.753906 54.90625c-1.207032 1.960937-3.246094 3.261719-5.535157 3.523437-2.292969.261719-4.574219-.546874-6.191406-2.183593l-35.957031-36.433594-24.113282 9.210937c-2.886718 1.101563-6.152343.324219-8.226562-1.960937l-19.984375-21.996094-34.953125 50.195313c-1.457031 2.09375-3.789062 3.21875-6.160156 3.21875zm0 0" fill="#3e4959"/><path d="m431.46875 123.820312c-.417969-16.832031-14.199219-30.339843-31.140625-30.339843h-52.457031c-5.449219 0-9.882813-4.429688-9.882813-9.878907v-52.460937c0-8.601563-3.476562-16.390625-9.117187-22.03125-5.460938-5.460937-12.941406-8.898437-21.222656-9.109375 19.652343.199219 38.453124 8.101562 52.371093 22.011719l49.429688 49.4375c7.0625 7.0625 12.570312 15.359375 16.3125 24.402343 3.648437 8.789063 5.617187 18.277344 5.707031 27.96875zm0 0" fill="#f2f2f2"/><path d="m187.804688 129c0 10.019531-8.121094 18.140625-18.136719 18.140625-10.019531 0-18.140625-8.121094-18.140625-18.140625s8.121094-18.140625 18.140625-18.140625c10.015625 0 18.136719 8.121094 18.136719 18.140625zm0 0" fill="#fff"/><path d="m316.804688 129c0 10.019531-8.121094 18.140625-18.136719 18.140625-10.019531 0-18.140625-8.121094-18.140625-18.140625s8.121094-18.140625 18.140625-18.140625c10.015625 0 18.136719 8.121094 18.136719 18.140625zm0 0" fill="#fff"/><g fill="#cccbca"><path d="m392.132812 410.320312h-268.671874c-4.140626 0-7.5-3.355468-7.5-7.5 0-4.140624 3.359374-7.5 7.5-7.5h268.671874c4.140626 0 7.5 3.359376 7.5 7.5 0 4.144532-3.359374 7.5-7.5 7.5zm0 0"/><path d="m392.132812 450.566406h-268.671874c-4.140626 0-7.5-3.355468-7.5-7.5 0-4.140625 3.359374-7.5 7.5-7.5h268.671874c4.140626 0 7.5 3.359375 7.5 7.5 0 4.144532-3.359374 7.5-7.5 7.5zm0 0"/></g></svg>