<svg height="512pt" viewBox="0 -16 512 512" width="512pt" xmlns="http://www.w3.org/2000/svg"><path d="m400.289062 7.5h-368.742187c-13.28125 0-24.046875 10.765625-24.046875 24.046875v320.644531c0 13.285156 10.765625 24.050782 24.046875 24.050782h368.742187c13.28125 0 24.050782-10.769532 24.050782-24.050782v-320.644531c0-13.28125-10.769532-24.046875-24.050782-24.046875zm0 0" fill="#eceaec"/><path d="m400.289062 376.242188h-368.742187c-13.28125 0-24.046875-10.769532-24.046875-24.050782v-216.433594h416.839844v216.433594c0 13.28125-10.769532 24.050782-24.050782 24.050782zm0 0" fill="#ffc8ca"/><path d="m31.546875 239.96875v-104.210938h-24.046875v216.433594c0 13.28125 10.765625 24.046875 24.046875 24.046875h368.742187c13.28125 0 24.050782-10.765625 24.050782-24.046875h-280.566406c-61.980469 0-112.226563-50.242187-112.226563-112.222656zm0 0" fill="#ff9a9f"/><path d="m400.289062 7.5h-368.742187c-13.28125 0-24.046875 10.765625-24.046875 24.046875v40.082031h184.371094c4.425781 0 8.015625-3.589844 8.015625-8.015625v-24.050781h64.128906v24.050781c0 4.425781 3.589844 8.015625 8.015625 8.015625h152.308594v-40.082031c0-13.28125-10.769532-24.046875-24.050782-24.046875zm0 0" fill="#dad8db"/><path d="m504.5 344.175781c0 70.835938-57.421875 128.257813-128.257812 128.257813-70.835938 0-128.257813-57.421875-128.257813-128.257813 0-70.832031 57.421875-128.257812 128.257813-128.257812 70.835937 0 128.257812 57.425781 128.257812 128.257812zm0 0" fill="#b6b1b7"/><path d="m408.304688 440.371094c-70.832032 0-128.257813-57.425782-128.257813-128.257813 0-27.226562 8.542969-52.421875 23.007813-73.1875-33.257813 23.171875-55.070313 61.640625-55.070313 105.25 0 70.835938 57.421875 128.257813 128.257813 128.257813 43.609374 0 82.074218-21.8125 105.25-55.070313-20.765626 14.464844-45.960938 23.007813-73.1875 23.007813zm0 0" fill="#9b959d"/><path d="m472.4375 344.175781c0 53.128907-43.070312 96.195313-96.195312 96.195313s-96.195313-43.066406-96.195313-96.195313c0-53.125 43.070313-96.191406 96.195313-96.191406s96.195312 43.066406 96.195312 96.191406zm0 0" fill="#fff"/><path d="m392.273438 344.175781c0 8.855469-7.175782 16.035157-16.03125 16.035157-8.855469 0-16.03125-7.179688-16.03125-16.035157 0-8.851562 7.175781-16.03125 16.03125-16.03125 8.855468 0 16.03125 7.179688 16.03125 16.03125zm0 0" fill="#b6b1b7"/><path d="m392.273438 424.339844c-53.125 0-96.195313-43.070313-96.195313-96.195313 0-22.476562 7.773437-43.101562 20.6875-59.476562-22.332031 17.617187-36.71875 44.855469-36.71875 75.507812 0 53.125 43.066406 96.195313 96.195313 96.195313 30.652343 0 57.890624-14.386719 75.507812-36.71875-16.375 12.914062-37 20.6875-59.476562 20.6875zm0 0" fill="#eceaec"/><path d="m135.757812 47.578125v24.050781h56.113282c4.425781 0 8.015625-3.589844 8.015625-8.015625v-24.050781h-56.113281c-4.425782 0-8.015626 3.589844-8.015626 8.015625zm0 0" fill="#c8c5c9"/><path d="m384.257812 39.5625h-120.242187v24.050781c0 4.425781 3.589844 8.015625 8.015625 8.015625h120.242188v-24.050781c0-4.425781-3.589844-8.015625-8.015626-8.015625zm0 0" fill="#c8c5c9"/><path d="m215.917969 368.742188h-184.371094c-9.125 0-16.546875-7.425782-16.546875-16.550782v-208.933594h56.632812c4.140626 0 7.5-3.359374 7.5-7.5 0-4.140624-3.359374-7.5-7.5-7.5h-56.632812v-49.128906h176.871094c4.144531 0 8.039062-1.609375 10.96875-4.535156 2.933594-2.925781 4.546875-6.824219 4.546875-10.972656v-16.558594h49.128906v16.546875c0 8.558594 6.960937 15.519531 15.515625 15.519531h144.808594v49.128906h-313.148438c-4.140625 0-7.5 3.355469-7.5 7.5 0 4.140626 3.359375 7.5 7.5 7.5h313.148438v48.609376c0 4.144531 3.355468 7.5 7.5 7.5 4.140625 0 7.5-3.355469 7.5-7.5v-160.320313c0-17.394531-14.152344-31.546875-31.550782-31.546875h-368.742187c-17.394531 0-31.546875 14.152344-31.546875 31.546875v320.644531c0 17.398438 14.152344 31.550782 31.546875 31.550782h184.371094c4.144531 0 7.5-3.359376 7.5-7.5 0-4.140626-3.355469-7.5-7.5-7.5zm-23.53125-305.117188c0 .058594 0 .207031-.144531.351562-.148438.152344-.316407.152344-.371094.152344h-48.613282v-16.550781c0-.28125.230469-.515625.515626-.515625h48.613281zm79.128906-.011719v-16.550781h49.128906v17.066406h-48.613281c-.285156 0-.515625-.230468-.515625-.515625zm112.742187-16.550781c.285157 0 .515626.234375.515626.515625v16.550781h-49.128907v-17.066406zm-352.710937-32.0625h368.742187c9.125 0 16.550782 7.421875 16.550782 16.546875v32.582031h-17.066406v-16.550781c0-8.554687-6.960938-15.515625-15.515626-15.515625h-240.484374c-8.554688 0-15.515626 6.960938-15.515626 15.515625v16.550781h-113.257812v-32.582031c0-9.125 7.421875-16.546875 16.546875-16.546875zm0 0"/><path d="m39.644531 47.0625c4.140625 0 7.5-3.355469 7.5-7.5 0-4.140625-3.359375-7.5-7.5-7.5h-.078125c-4.144531 0-7.460937 3.359375-7.460937 7.5 0 4.144531 3.398437 7.5 7.539062 7.5zm0 0"/><path d="m71.710938 47.0625c4.140624 0 7.5-3.355469 7.5-7.5 0-4.140625-3.359376-7.5-7.5-7.5h-.082032c-4.140625 0-7.460937 3.359375-7.460937 7.5 0 4.144531 3.398437 7.5 7.542969 7.5zm0 0"/><path d="m103.773438 47.0625c4.140624 0 7.5-3.355469 7.5-7.5 0-4.140625-3.359376-7.5-7.5-7.5h-.082032c-4.140625 0-7.457031 3.359375-7.457031 7.5 0 4.144531 3.398437 7.5 7.539063 7.5zm0 0"/><path d="m39.5625 96.191406c-4.140625 0-7.5 3.359375-7.5 7.5 0 4.144532 3.359375 7.5 7.5 7.5h32.0625c4.140625 0 7.5-3.355468 7.5-7.5 0-4.140625-3.359375-7.5-7.5-7.5zm0 0"/><path d="m103.695312 111.191406h208.414063c4.144531 0 7.5-3.355468 7.5-7.5 0-4.140625-3.355469-7.5-7.5-7.5h-208.414063c-4.140624 0-7.5 3.359375-7.5 7.5 0 4.144532 3.359376 7.5 7.5 7.5zm0 0"/><path d="m352.1875 111.191406c4.140625 0 7.5-3.355468 7.5-7.5 0-4.140625-3.359375-7.5-7.5-7.5h-8.011719c-4.144531 0-7.5 3.359375-7.5 7.5 0 4.144532 3.355469 7.5 7.5 7.5zm0 0"/><path d="m392.269531 111.191406c4.140625 0 7.5-3.355468 7.5-7.5 0-4.140625-3.359375-7.5-7.5-7.5h-8.011719c-4.140624 0-7.5 3.359375-7.5 7.5 0 4.144532 3.359376 7.5 7.5 7.5zm0 0"/><path d="m383.742188 208.628906v-17.273437h8.53125c4.144531 0 7.5-3.359375 7.5-7.5 0-4.144531-3.355469-7.5-7.5-7.5h-32.0625c-4.144532 0-7.5 3.355469-7.5 7.5 0 4.140625 3.355468 7.5 7.5 7.5h8.53125v17.273437c-71.382813 3.90625-128.257813 63.207032-128.257813 135.546875 0 74.855469 60.902344 135.757813 135.757813 135.757813 74.855468 0 135.757812-60.902344 135.757812-135.757813 0-72.339843-56.875-131.640625-128.257812-135.546875zm-7.5 256.304688c-66.585938 0-120.757813-54.171875-120.757813-120.757813 0-66.585937 54.171875-120.757812 120.757813-120.757812 66.585937 0 120.757812 54.171875 120.757812 120.757812 0 66.585938-54.171875 120.757813-120.757812 120.757813zm0 0"/><path d="m313.527344 281.460938c30.699218-30.699219 78.65625-34.699219 114.027344-9.511719 3.371093 2.402343 8.054687 1.617187 10.460937-1.757813 2.402344-3.375 1.613281-8.054687-1.761719-10.460937-19.742187-14.054688-43.972656-20.761719-68.222656-18.875-24.550781 1.90625-47.675781 12.5625-65.113281 30s-28.089844 40.558593-29.996094 65.109375c-1.886719 24.253906 4.816406 48.484375 18.875 68.226562 1.460937 2.054688 3.769531 3.148438 6.113281 3.148438 1.507813 0 3.027344-.449219 4.347656-1.390625 3.371094-2.402344 4.160157-7.085938 1.757813-10.460938-25.1875-35.371093-21.191406-83.328125 9.511719-114.027343zm0 0"/><path d="m460.6875 284.164062c-2.402344-3.375-7.085938-4.160156-10.460938-1.761718-3.375 2.40625-4.160156 7.085937-1.757812 10.460937 25.1875 35.371094 21.1875 83.328125-9.511719 114.027344-30.699219 30.703125-78.65625 34.699219-114.027343 9.511719-3.375-2.402344-8.054688-1.617188-10.460938 1.757812-2.402344 3.375-1.613281 8.058594 1.761719 10.460938 17.554687 12.503906 38.664062 19.1875 60.179687 19.1875 2.675782 0 5.359375-.105469 8.042969-.3125 24.550781-1.90625 47.675781-12.5625 65.113281-30 17.4375-17.433594 28.089844-40.558594 29.996094-65.109375 1.886719-24.253907-4.816406-48.480469-18.875-68.222657zm0 0"/><path d="m429.640625 290.777344c-2.925781-2.929688-7.675781-2.929688-10.605469 0l-32.328125 32.328125c-3.15625-1.570313-6.707031-2.460938-10.464843-2.460938-12.976563 0-23.53125 10.554688-23.53125 23.53125 0 3.757813.890624 7.308594 2.460937 10.464844l-8.28125 8.28125c-2.929687 2.929687-2.929687 7.679687 0 10.605469 1.464844 1.464844 3.382813 2.199218 5.304687 2.199218 1.917969 0 3.835938-.734374 5.300782-2.199218l8.28125-8.28125c3.15625 1.574218 6.707031 2.460937 10.464844 2.460937 12.976562 0 23.53125-10.554687 23.53125-23.53125 0-3.757812-.886719-7.308593-2.460938-10.460937l32.328125-32.332032c2.929687-2.929687 2.929687-7.679687 0-10.605468zm-53.398437 61.933594c-4.707032 0-8.53125-3.828126-8.53125-8.535157 0-4.703125 3.828124-8.53125 8.53125-8.53125 4.703124 0 8.53125 3.828125 8.53125 8.53125 0 4.707031-3.828126 8.535157-8.53125 8.535157zm0 0"/></svg>