<svg height="512pt" viewBox="-48 0 512 512" width="512pt" xmlns="http://www.w3.org/2000/svg"><path d="m384.257812 408.304688h-352.710937c-13.28125 0-24.046875-10.765626-24.046875-24.046876v-64.128906c0-13.28125 10.765625-24.046875 24.046875-24.046875h352.710937c13.28125 0 24.046876 10.765625 24.046876 24.046875v64.128906c0 13.28125-10.765626 24.046876-24.046876 24.046876zm0 0" fill="#857e87"/><path d="m31.546875 360.210938v-64.128907c-13.28125 0-24.046875 10.765625-24.046875 24.046875v64.128906c0 13.28125 10.765625 24.046876 24.046875 24.046876h352.710937c13.28125 0 24.046876-10.765626 24.046876-24.046876h-352.707032c-13.28125 0-24.050781-10.765624-24.050781-24.046874zm0 0" fill="#6f6571"/><path d="m384.257812 264.015625h-352.710937c-13.28125 0-24.046875-10.765625-24.046875-24.046875v-64.128906c0-13.28125 10.765625-24.050782 24.046875-24.050782h352.710937c13.28125 0 24.046876 10.769532 24.046876 24.050782v64.128906c0 13.28125-10.765626 24.046875-24.046876 24.046875zm0 0" fill="#857e87"/><path d="m127.742188 207.902344c0 8.855468-7.179688 16.03125-16.03125 16.03125-8.855469 0-16.035157-7.175782-16.035157-16.03125 0-8.855469 7.179688-16.03125 16.035157-16.03125 8.851562 0 16.03125 7.175781 16.03125 16.03125zm0 0" fill="#b3e59f"/><path d="m31.546875 215.917969v-64.128907c-13.28125 0-24.046875 10.769532-24.046875 24.050782v64.128906c0 13.28125 10.765625 24.046875 24.046875 24.046875h352.710937c13.28125 0 24.046876-10.769531 24.046876-24.046875h-352.707032c-13.28125 0-24.050781-10.769531-24.050781-24.050781zm0 0" fill="#6f6571"/><path d="m213.308594 499.769531c83.097656-74.035156 113.566406-163.039062 120.941406-188.535156 1.164062-4.027344-.976562-8.222656-4.902344-9.695313l-115.816406-43.429687c-3.628906-1.359375-7.628906-1.359375-11.257812 0l-115.816407 43.429687c-3.925781 1.472657-6.066406 5.667969-4.902343 9.695313 7.375 25.492187 37.84375 114.5 120.941406 188.535156 3.039062 2.707031 7.773437 2.707031 10.8125 0zm0 0" fill="#eceaec"/><path d="m141.785156 280.792969-55.328125 20.75c-3.921875 1.472656-6.066406 5.664062-4.898437 9.691406 7.375 25.496094 37.839844 114.5 120.941406 188.535156 3.039062 2.710938 7.769531 2.710938 10.808594 0 5.667968-5.046875 11.042968-10.175781 16.230468-15.339843-54.039062-80.957032-78.675781-165.515626-87.753906-203.636719zm0 0" fill="#dad8db"/><path d="m288.800781 320.582031c-17.414062-6.53125-59.960937-22.484375-75.285156-28.230469-3.628906-1.363281-7.613281-1.359374-11.242187.003907l-75.238282 28.214843c-4.222656 1.582032-6.328125 6.289063-4.648437 10.472657 12.570312 31.257812 36.742187 78.777343 79.648437 123.730469 3.152344 3.300781 8.578125 3.300781 11.730469 0 42.910156-44.953126 67.082031-92.472657 79.648437-123.730469 1.683594-4.183594-.390624-8.878907-4.613281-10.460938zm0 0" fill="#b3e59f"/><path d="m384.257812 119.726562h-352.710937c-13.28125 0-24.046875-10.765624-24.046875-24.046874v-64.132813c0-13.28125 10.765625-24.046875 24.046875-24.046875h352.710937c13.28125 0 24.046876 10.765625 24.046876 24.046875v64.128906c0 13.285157-10.765626 24.050781-24.046876 24.050781zm0 0" fill="#857e87"/><path d="m127.742188 63.613281c0 8.855469-7.179688 16.03125-16.03125 16.03125-8.855469 0-16.035157-7.175781-16.035157-16.03125s7.179688-16.03125 16.035157-16.03125c8.851562 0 16.03125 7.175781 16.03125 16.03125zm0 0" fill="#b3e59f"/><path d="m288.800781 320.582031c-17.414062-6.53125-59.960937-22.484375-75.285156-28.230469-1.8125-.679687-3.710937-1.019531-5.613281-1.019531v165.914063c2.144531 0 4.289062-.824219 5.863281-2.472656 42.910156-44.953126 67.082031-92.472657 79.652344-123.734376 1.679687-4.179687-.394531-8.875-4.617188-10.457031zm0 0" fill="#ccf49f"/><path d="m211.867188 456.070312c-31.535157-53.992187-50.742188-106.898437-61.734376-144.164062l-23.097656 8.664062c-4.222656 1.582032-6.328125 6.289063-4.644531 10.46875 12.566406 31.261719 36.738281 78.78125 79.648437 123.734376 2.601563 2.722656 6.683594 3.070312 9.828126 1.296874zm0 0" fill="#95d6a4"/><path d="m31.546875 71.628906v-64.128906c-13.28125 0-24.046875 10.765625-24.046875 24.046875v64.128906c0 13.285157 10.765625 24.050781 24.046875 24.050781h352.710937c13.28125 0 24.046876-10.769531 24.046876-24.050781h-352.707032c-13.28125 0-24.050781-10.765625-24.050781-24.046875zm0 0" fill="#6f6571"/><path d="m384.257812 127.226562c17.394532 0 31.546876-14.152343 31.546876-31.546874v-64.132813c0-17.394531-14.152344-31.546875-31.546876-31.546875h-352.710937c-17.394531 0-31.546875 14.152344-31.546875 31.546875v64.128906c0 17.398438 14.152344 31.550781 31.546875 31.550781h168.855469v17.0625h-168.855469c-17.394531 0-31.546875 14.152344-31.546875 31.550782v64.128906c0 17.394531 14.152344 31.546875 31.546875 31.546875h56.113281c4.144532 0 7.5-3.359375 7.5-7.5 0-4.144531-3.355468-7.5-7.5-7.5h-56.113281c-9.125 0-16.546875-7.421875-16.546875-16.546875v-64.128906c0-9.125 7.425781-16.550782 16.546875-16.550782h352.710937c9.125 0 16.546876 7.425782 16.546876 16.550782v64.128906c0 9.125-7.421876 16.546875-16.546876 16.546875h-56.113281c-4.140625 0-7.5 3.355469-7.5 7.5 0 4.140625 3.359375 7.5 7.5 7.5h56.113281c17.394532 0 31.546876-14.152344 31.546876-31.546875v-64.128906c0-17.398438-14.152344-31.550782-31.546876-31.550782h-168.855468v-17.0625zm-369.257812-31.546874v-64.132813c0-9.121094 7.425781-16.546875 16.546875-16.546875h352.710937c9.125 0 16.546876 7.425781 16.546876 16.546875v64.128906c0 9.125-7.421876 16.550781-16.546876 16.550781h-352.710937c-9.121094 0-16.546875-7.425781-16.546875-16.546874zm0 0"/><path d="m159.804688 55.082031h112.226562c4.144531 0 7.5-3.359375 7.5-7.5 0-4.144531-3.355469-7.5-7.5-7.5h-112.226562c-4.140626 0-7.5 3.355469-7.5 7.5 0 4.140625 3.359374 7.5 7.5 7.5zm0 0"/><path d="m279.53125 79.644531c0-4.140625-3.355469-7.5-7.5-7.5h-112.226562c-4.140626 0-7.5 3.359375-7.5 7.5 0 4.144531 3.359374 7.5 7.5 7.5h112.226562c4.144531 0 7.5-3.359375 7.5-7.5zm0 0"/><path d="m304.097656 55.082031h48.09375c4.144532 0 7.5-3.359375 7.5-7.5 0-4.144531-3.355468-7.5-7.5-7.5h-48.09375c-4.144531 0-7.5 3.355469-7.5 7.5 0 4.140625 3.355469 7.5 7.5 7.5zm0 0"/><path d="m304.097656 87.144531h48.09375c4.144532 0 7.5-3.355469 7.5-7.5 0-4.140625-3.355468-7.5-7.5-7.5h-48.09375c-4.144531 0-7.5 3.359375-7.5 7.5s3.355469 7.5 7.5 7.5zm0 0"/><path d="m111.710938 40.082031c-12.976563 0-23.53125 10.554688-23.53125 23.53125 0 12.976563 10.554687 23.53125 23.53125 23.53125 12.972656 0 23.53125-10.554687 23.53125-23.53125 0-12.976562-10.558594-23.53125-23.53125-23.53125zm0 32.0625c-4.707032 0-8.53125-3.828125-8.53125-8.53125 0-4.707031 3.828124-8.53125 8.53125-8.53125 4.703124 0 8.53125 3.828125 8.53125 8.53125s-3.828126 8.53125-8.53125 8.53125zm0 0"/><path d="m63.613281 56.113281c-4.144531 0-7.5 3.359375-7.5 7.5s3.355469 7.5 7.5 7.5h.078125c4.144532 0 7.460938-3.359375 7.460938-7.5s-3.398438-7.5-7.539063-7.5zm0 0"/><path d="m159.804688 199.371094h112.226562c4.144531 0 7.5-3.359375 7.5-7.5 0-4.144532-3.355469-7.5-7.5-7.5h-112.226562c-4.140626 0-7.5 3.355468-7.5 7.5 0 4.140625 3.359374 7.5 7.5 7.5zm0 0"/><path d="m159.804688 231.4375h112.226562c4.144531 0 7.5-3.359375 7.5-7.5 0-4.144531-3.355469-7.5-7.5-7.5h-112.226562c-4.140626 0-7.5 3.355469-7.5 7.5 0 4.140625 3.359374 7.5 7.5 7.5zm0 0"/><path d="m304.097656 199.371094h48.09375c4.144532 0 7.5-3.359375 7.5-7.5 0-4.144532-3.355468-7.5-7.5-7.5h-48.09375c-4.144531 0-7.5 3.355468-7.5 7.5 0 4.140625 3.355469 7.5 7.5 7.5zm0 0"/><path d="m304.097656 231.4375h48.09375c4.144532 0 7.5-3.359375 7.5-7.5 0-4.144531-3.355468-7.5-7.5-7.5h-48.09375c-4.144531 0-7.5 3.355469-7.5 7.5 0 4.140625 3.355469 7.5 7.5 7.5zm0 0"/><path d="m111.710938 184.371094c-12.976563 0-23.53125 10.558594-23.53125 23.53125 0 12.976562 10.554687 23.53125 23.53125 23.53125 12.972656 0 23.53125-10.554688 23.53125-23.53125 0-12.972656-10.558594-23.53125-23.53125-23.53125zm0 32.066406c-4.707032 0-8.53125-3.828125-8.53125-8.535156 0-4.703125 3.828124-8.53125 8.53125-8.53125 4.703124 0 8.53125 3.828125 8.53125 8.53125 0 4.707031-3.828126 8.535156-8.53125 8.535156zm0 0"/><path d="m56.113281 207.902344c0 4.144531 3.355469 7.5 7.5 7.5h.078125c4.144532 0 7.460938-3.355469 7.460938-7.5 0-4.140625-3.398438-7.5-7.539063-7.5-4.144531 0-7.5 3.359375-7.5 7.5zm0 0"/><path d="m87.660156 400.808594h-56.113281c-9.125 0-16.546875-7.425782-16.546875-16.550782v-64.128906c0-9.125 7.421875-16.546875 16.546875-16.546875h16.039063c4.140624 0 7.5-3.359375 7.5-7.5 0-4.144531-3.359376-7.5-7.5-7.5h-16.039063c-17.394531 0-31.546875 14.152344-31.546875 31.546875v64.128906c0 17.394532 14.152344 31.550782 31.546875 31.550782h56.113281c4.144532 0 7.5-3.359375 7.5-7.5 0-4.144532-3.355468-7.5-7.5-7.5zm0 0"/><path d="m384.257812 288.582031h-16.03125c-4.144531 0-7.5 3.355469-7.5 7.5 0 4.140625 3.355469 7.5 7.5 7.5h16.03125c9.125 0 16.546876 7.421875 16.546876 16.546875v64.128906c0 9.125-7.421876 16.550782-16.546876 16.550782h-56.113281c-4.140625 0-7.5 3.355468-7.5 7.5 0 4.140625 3.359375 7.5 7.5 7.5h56.113281c17.394532 0 31.546876-14.15625 31.546876-31.550782v-64.128906c0-17.394531-14.152344-31.546875-31.546876-31.546875zm0 0"/><path d="m63.691406 359.691406c4.144532 0 7.460938-3.355468 7.460938-7.5 0-4.140625-3.398438-7.5-7.539063-7.5-4.144531 0-7.5 3.359375-7.5 7.5 0 4.144532 3.355469 7.5 7.5 7.5zm0 0"/><path d="m338.796875 297.074219-128.261719-48.097657c-1.695312-.636718-3.566406-.636718-5.265625 0l-128.257812 48.097657c-3.515625 1.316406-5.515625 5.03125-4.675781 8.691406.269531 1.183594 6.828124 29.367187 26.230468 68.777344 17.863282 36.285156 50.484375 89.269531 104.449219 135.644531 1.40625 1.207031 3.144531 1.8125 4.886719 1.8125 1.742187 0 3.484375-.605469 4.886718-1.8125 53.96875-46.375 86.585938-99.359375 104.449219-135.644531 19.402344-39.410157 25.964844-67.59375 26.234375-68.777344.835938-3.660156-1.164062-7.371094-4.675781-8.691406zm-130.894531 197.464843c-48.980469-43.539062-78.976563-92.386718-95.660156-126.179687-13.488282-27.316406-20.628907-49.335937-23.59375-59.628906l119.253906-44.71875 119.25 44.714843c-6.988282 24.121094-37.089844 112.804688-119.25 185.8125zm0 0"/><path d="m206.15625 282.949219c-.3125.074219-.621094.171875-.921875.285156l-40.042969 15.019531c-3.878906 1.453125-5.84375 5.777344-4.390625 9.652344 1.457031 3.878906 5.777344 5.84375 9.65625 4.390625l29.945313-11.230469v140.84375c-38.265625-42.59375-60.132813-86.921875-71.136719-114.167968l9.128906-3.421876c3.878907-1.453124 5.84375-5.777343 4.386719-9.65625-1.453125-3.878906-5.777344-5.84375-9.652344-4.386718l-16.253906 6.09375c-1.867188.699218-3.378906 2.113281-4.199219 3.929687-.820312 1.8125-.886719 3.882813-.183593 5.746094 11.296874 29.839844 38.023437 87.710937 90.109374 140.015625 1.40625 1.410156 3.316407 2.207031 5.308594 2.207031h.003906c1.992188 0 3.902344-.792969 5.3125-2.203125 52.472657-52.582031 79.03125-110.285156 90.195313-140 .699219-1.863281.628906-3.925781-.195313-5.738281-.820312-1.8125-2.332031-3.222656-4.195312-3.921875l-88.449219-33.167969c-.316406-.121093-.644531-.21875-.976562-.296875-.566407-.132812-1.136719-.199218-1.703125-.199218-.578125 0-1.164063.070312-1.746094.207031zm9.246094 159.023437v-140.90625l71.253906 26.722656c-10.902344 27.152344-32.691406 71.398438-71.253906 114.183594zm0 0"/></svg>