<svg height="496pt" viewBox="0 0 496 496" width="496pt" xmlns="http://www.w3.org/2000/svg"><path d="m320 496h-144v-144h144zm0 0" fill="#f0bc5e"/><path d="m216 384h16v16h-16zm0 0"/><path d="m264 384h16v16h-16zm0 0"/><path d="m216 448h16v16h-16zm0 0"/><path d="m264 448h16v16h-16zm0 0"/><path d="m176 416h144v16h-144zm0 0"/><path d="m144 496h-144v-144h144zm0 0" fill="#f0bc5e"/><path d="m40 384h16v16h-16zm0 0"/><path d="m88 384h16v16h-16zm0 0"/><path d="m40 448h16v16h-16zm0 0"/><path d="m88 448h16v16h-16zm0 0"/><path d="m0 416h144v16h-144zm0 0"/><path d="m496 496h-144v-144h144zm0 0" fill="#f0bc5e"/><path d="m392 384h16v16h-16zm0 0"/><path d="m440 384h16v16h-16zm0 0"/><path d="m392 448h16v16h-16zm0 0"/><path d="m440 448h16v16h-16zm0 0"/><path d="m352 416h144v16h-144zm0 0"/><path d="m176 32c-35.289062 0-64 28.710938-64 64h16c0-26.472656 21.527344-48 48-48zm0 0"/><path d="m424 232c39.695312 0 72-32.304688 72-72s-32.304688-72-72-72h-8.40625c-4.089844-49.191406-45.363281-88-95.59375-88-27.617188 0-53.769531 12.03125-71.894531 32.558594-17.839844-20.375-43.753907-32.558594-72.105469-32.558594-50.425781 0-91.808594 39.113281-95.625 88.574219-10.816406-1.316407-21.453125-.140625-31.71875 3.617187-29.992188 10.96875-49.089844 37.992188-48.6484375 68.847656.5585935 39.128907 32.8476565 70.960938 71.9921875 70.960938h120v40h-128v80h16v-64h128v-56h32v120h16v-136h-184c-30.441406 0-55.558594-24.753906-55.992188-55.183594-.335937-23.960937 14.632813-45 38.144532-53.601562 8.589844-3.144532 17.261718-3.855469 26.296875-2.40625.535156 5.878906 1.558593 11.703125 3.160156 17.367187l15.398437-4.351562c-2-7.070313-3.007812-14.410157-3.007812-21.824219 0-44.113281 35.886719-80 80-80 33.207031 0 62.472656 19.984375 74.542969 50.910156l14.90625-5.820312c-2.097657-5.363282-4.664063-10.402344-7.570313-15.1875 15.160156-18.75 37.9375-29.902344 62.121094-29.902344 41.414062 0 75.566406 31.632812 79.59375 72h-31.59375v16h56c30.878906 0 56 25.121094 56 56s-25.121094 56-56 56h-120v72h112v64h16v-80h-112v-40zm0 0"/><path d="m208 136h16v16h-16zm0 0"/><path d="m240 136h16v16h-16zm0 0"/><path d="m272 136h16v16h-16zm0 0"/><path d="m320 136h-16v32h-160v16h176zm0 0"/></svg>