<svg id="bold" enable-background="new 0 0 32 32" height="512" viewBox="0 0 32 32" width="512" xmlns="http://www.w3.org/2000/svg"><path d="m26 32h-20c-3.314 0-6-2.686-6-6v-20c0-3.314 2.686-6 6-6h20c3.314 0 6 2.686 6 6v20c0 3.314-2.686 6-6 6z" fill="#e3f8fa"/><path d="m9.667 11.333c-.92 0-1.667-.747-1.667-1.666s.747-1.667 1.667-1.667c.919 0 1.667.748 1.667 1.667-.001.919-.748 1.666-1.667 1.666z" fill="#8ce1eb"/><path d="m9.667 24c-.92 0-1.667-.748-1.667-1.667s.747-1.667 1.667-1.667c.919 0 1.667.748 1.667 1.667-.001.919-.748 1.667-1.667 1.667z" fill="#8ce1eb"/><path d="m22.333 11.333c-.919 0-1.667-.748-1.667-1.667.001-.918.748-1.666 1.667-1.666s1.667.748 1.667 1.667-.747 1.666-1.667 1.666z" fill="#8ce1eb"/><path d="m22.333 24c-.919 0-1.667-.748-1.667-1.667s.747-1.667 1.667-1.667 1.667.748 1.667 1.667-.747 1.667-1.667 1.667z" fill="#8ce1eb"/><g fill="#26c6da"><path d="m16 22c-3.309 0-6-2.692-6-6s2.691-6 6-6 6 2.692 6 6-2.691 6-6 6zm0-10.667c-2.573 0-4.667 2.093-4.667 4.667s2.094 4.667 4.667 4.667 4.667-2.093 4.667-4.667-2.094-4.667-4.667-4.667z"/><path d="m16 22c-.176 0-.353-.07-.484-.208-3.03-3.194-3.03-8.391 0-11.585.253-.267.676-.278.943-.025.267.254.278.675.025.943-2.55 2.688-2.55 7.061 0 9.749.253.267.242.689-.025.943-.129.122-.294.183-.459.183z"/><path d="m16 22c-.165 0-.33-.061-.459-.183-.267-.254-.278-.675-.025-.943 2.55-2.688 2.55-7.061 0-9.749-.253-.267-.242-.689.025-.943.268-.253.69-.242.943.025 3.03 3.194 3.03 8.391 0 11.585-.131.138-.308.208-.484.208z"/><path d="m21.133 15.212h-10.266c-.368 0-.667-.299-.667-.667s.298-.667.667-.667h10.266c.368 0 .667.299.667.667s-.299.667-.667.667z"/><path d="m21.133 18.121h-10.266c-.368 0-.667-.299-.667-.667s.298-.667.667-.667h10.266c.368 0 .667.299.667.667 0 .369-.299.667-.667.667z"/></g></svg>